<?xml version="1.0" standalone="no"?>
<!DOCTYPE svg PUBLIC "-//W3C//DTD SVG 20010904//EN"
 "http://www.w3.org/TR/2001/REC-SVG-20010904/DTD/svg10.dtd">
<svg version="1.0" xmlns="http://www.w3.org/2000/svg"
 width="900.000000pt" height="600.000000pt" viewBox="0 0 900.000000 600.000000"
 preserveAspectRatio="xMidYMid meet">

<g transform="translate(0.000000,600.000000) scale(0.100000,-0.100000)"
fill="#000000" stroke="none">
<path d="M4230 5619 c-764 -68 -1480 -501 -1905 -1154 -226 -346 -353 -699
-401 -1113 -20 -168 -14 -532 11 -687 95 -600 402 -1157 848 -1541 394 -339
832 -540 1342 -616 140 -20 590 -17 735 6 579 90 1062 341 1473 763 377 389
622 897 698 1453 20 144 17 536 -4 685 -46 313 -132 578 -273 844 -365 690
-1041 1190 -1791 1325 -243 44 -493 56 -733 35z m557 -877 c268 -58 472 -159
639 -315 110 -103 187 -204 244 -321 74 -153 84 -202 85 -396 0 -188 -12 -249
-75 -386 -48 -103 -93 -174 -169 -262 -85 -99 -172 -166 -335 -257 -197 -110
-244 -158 -267 -267 -14 -64 -33 -104 -54 -112 -9 -3 -182 -6 -385 -6 l-369 0
-23 33 c-20 28 -23 46 -26 137 -6 180 35 312 136 435 63 77 130 129 267 203
239 131 280 158 350 227 77 76 95 114 95 199 0 57 -17 93 -65 135 -46 40 -113
74 -203 101 -58 18 -91 21 -169 18 -85 -3 -107 -7 -163 -34 -112 -53 -231
-181 -246 -265 -3 -19 -10 -47 -16 -62 -21 -55 -33 -57 -431 -57 l-363 0 -25
33 c-23 30 -24 39 -23 172 2 282 86 483 291 692 182 185 437 313 727 363 148
26 434 22 573 -8z m70 -2562 c51 -31 55 -57 51 -432 l-3 -338 -33 -32 -32 -33
-338 -3 c-375 -4 -401 -1 -432 51 -19 30 -20 53 -20 386 l0 353 34 34 34 34
354 0 c332 0 355 -1 385 -20z"/>
</g>
</svg>
